<svg width="16" height="17" viewBox="0 0 16 17" fill="none" xmlns="http://www.w3.org/2000/svg">
<path d="M14.1796 6.78141C13.9863 6.47474 13.7796 6.18808 13.5663 5.92141C13.3196 5.60808 12.853 5.58141 12.573 5.86141L10.573 7.86141C10.7196 8.30141 10.7463 8.80808 10.613 9.33474C10.3796 10.2747 9.61964 11.0347 8.67964 11.2681C8.15297 11.4014 7.64631 11.3747 7.20631 11.2281C7.20631 11.2281 6.25297 12.1814 5.56631 12.8681C5.23297 13.2014 5.33964 13.7881 5.78631 13.9614C6.49964 14.2347 7.23964 14.3747 7.99964 14.3747C9.18631 14.3747 10.3396 14.0281 11.393 13.3814C12.4663 12.7147 13.433 11.7347 14.213 10.4881C14.8463 9.48141 14.813 7.78808 14.1796 6.78141Z" fill="#BDBDBD"/>
<path d="M9.34708 7.31488L6.65375 10.0082C6.31375 9.66155 6.09375 9.18155 6.09375 8.66155C6.09375 7.61488 6.94708 6.75488 8.00042 6.75488C8.52042 6.75488 9.00042 6.97488 9.34708 7.31488Z" fill="#BDBDBD"/>
<path d="M12.1654 4.49491L9.90536 6.75491C9.4187 6.26158 8.74536 5.96824 7.9987 5.96824C6.50536 5.96824 5.30536 7.17491 5.30536 8.66157C5.30536 9.40824 5.60536 10.0816 6.09203 10.5682L3.8387 12.8282H3.83203C3.09203 12.2282 2.41203 11.4616 1.83203 10.5549C1.16536 9.50824 1.16536 7.80824 1.83203 6.76157C2.60536 5.54824 3.55203 4.59491 4.60536 3.94158C5.6587 3.30158 6.81203 2.94824 7.9987 2.94824C9.48536 2.94824 10.9254 3.49491 12.1654 4.49491Z" fill="#BDBDBD"/>
<path d="M9.90672 8.66143C9.90672 9.7081 9.05339 10.5681 8.00005 10.5681C7.96005 10.5681 7.92672 10.5681 7.88672 10.5548L9.89339 8.5481C9.90672 8.5881 9.90672 8.62143 9.90672 8.66143Z" fill="#BDBDBD"/>
<path d="M14.5126 2.14805C14.3126 1.94805 13.9859 1.94805 13.7859 2.14805L1.48594 14.4547C1.28594 14.6547 1.28594 14.9814 1.48594 15.1814C1.58594 15.2747 1.7126 15.328 1.84594 15.328C1.97927 15.328 2.10594 15.2747 2.20594 15.1747L14.5126 2.86805C14.7193 2.66805 14.7193 2.34805 14.5126 2.14805Z" fill="#BDBDBD"/>
</svg>
