<svg width="20" height="21" viewBox="0 0 20 21" fill="none" xmlns="http://www.w3.org/2000/svg">
<path d="M16.4912 4.17798C14.0246 1.71965 10.0246 1.71965 7.57455 4.17798C5.84955 5.88631 5.33289 8.34465 5.99955 10.5113L2.08289 14.428C1.80789 14.7113 1.61622 15.2696 1.67455 15.6696L1.92455 17.4863C2.01622 18.0863 2.57455 18.653 3.17455 18.7363L4.99122 18.9863C5.39122 19.0446 5.94955 18.8613 6.23289 18.5696L6.91622 17.8863C7.08289 17.728 7.08289 17.4613 6.91622 17.2946L5.29955 15.678C5.05789 15.4363 5.05789 15.0363 5.29955 14.7946C5.54122 14.553 5.94122 14.553 6.18289 14.7946L7.80789 16.4196C7.96622 16.578 8.23289 16.578 8.39122 16.4196L10.1579 14.6613C12.3162 15.3363 14.7746 14.8113 16.4912 13.103C18.9496 10.6446 18.9496 6.63631 16.4912 4.17798ZM12.0829 10.6613C10.9329 10.6613 9.99955 9.72798 9.99955 8.57798C9.99955 7.42798 10.9329 6.49465 12.0829 6.49465C13.2329 6.49465 14.1662 7.42798 14.1662 8.57798C14.1662 9.72798 13.2329 10.6613 12.0829 10.6613Z" fill="#BDBDBD"/>
</svg>
