<svg width="116" height="32" viewBox="0 0 116 32" fill="none" xmlns="http://www.w3.org/2000/svg">
<path d="M21.8388 5.42783L20.8126 7.63965C20.6494 8.04592 20.5848 8.48413 20.624 8.91935C20.6633 9.35456 20.8052 9.77467 21.0386 10.1461L22.4669 12.1545C22.7395 12.4991 23.0911 12.7752 23.4929 12.9601C23.8946 13.145 24.335 13.2335 24.7781 13.2183L27.2597 13.003C27.6976 12.9404 28.1145 12.7773 28.4767 12.5267C28.8389 12.2761 29.1363 11.9451 29.345 11.5604L30.3987 9.34764C30.5641 8.94212 30.6303 8.50385 30.5919 8.06838C30.5536 7.63292 30.4119 7.21241 30.1782 6.84098L28.75 4.83274C28.4767 4.48873 28.125 4.21308 27.7233 4.02827C27.3218 3.8434 26.8816 3.75449 26.4387 3.7688L23.9571 3.98413C23.5131 4.04158 23.0893 4.20249 22.7209 4.45353C22.3525 4.70458 22.0501 5.03859 21.8388 5.42783Z" fill="#41C498"/>
<path d="M19.0798 18.6535L20.1336 16.4407C20.2968 16.0355 20.3613 15.5981 20.3221 15.1638C20.2829 14.7294 20.141 14.3102 19.9077 13.9397L18.4787 11.9097C18.2043 11.567 17.8523 11.2923 17.451 11.1076C17.0497 10.9229 16.6101 10.8332 16.1675 10.8458L13.6859 11.0612C13.248 11.1237 12.8311 11.2869 12.4689 11.5374C12.1067 11.788 11.8092 12.119 11.6006 12.5037L10.5744 14.7155C10.4091 15.1202 10.3428 15.5575 10.3811 15.9921C10.4194 16.4267 10.5611 16.8463 10.7947 17.2167L12.2232 19.2304C12.4988 19.5732 12.8518 19.8479 13.254 20.0325C13.6561 20.2172 14.0965 20.3068 14.54 20.2942L17.0161 20.079C17.4482 20.0143 17.8594 19.852 18.2174 19.6048C18.5754 19.3574 18.8705 19.0319 19.0798 18.6535Z" fill="#41C498"/>
<path d="M8.83037 25.7188L9.85653 23.507C10.0219 23.1014 10.0881 22.6632 10.0498 22.2277C10.0115 21.7922 9.86979 21.3717 9.63604 21.0003L8.20778 18.9921C7.93395 18.6487 7.58209 18.3735 7.18065 18.1888C6.77921 18.0039 6.33933 17.9147 5.8965 17.9281L3.41491 18.1435C2.98427 18.2103 2.57504 18.3741 2.2191 18.6223C1.8631 18.8703 1.56994 19.1961 1.36233 19.5741L0.336173 21.7859C0.172997 22.1921 0.108416 22.6303 0.147654 23.0655C0.186892 23.5008 0.328862 23.9209 0.562181 24.2924L1.99062 26.306C2.2645 26.6491 2.61645 26.9236 3.01797 27.1075C3.41949 27.2914 3.85926 27.3795 4.30171 27.3646L6.73978 27.167C7.17931 27.105 7.59777 26.9416 7.96109 26.6899C8.32436 26.4382 8.62224 26.1055 8.83037 25.7188Z" fill="#41C498"/>
<path d="M14.442 9.4898L16.3733 9.32046C16.816 9.30785 17.2555 9.39749 17.6568 9.58226C18.0581 9.76697 18.4101 10.0416 18.6845 10.3844L21.4658 14.3001C21.699 14.6706 21.8409 15.0898 21.8801 15.5242C21.9193 15.9585 21.8547 16.3959 21.6916 16.8011L20.8695 18.538C20.7042 18.9436 20.6379 19.3818 20.6762 19.8172C20.7145 20.2528 20.8563 20.6732 21.09 21.0446L22.5238 23.0527C22.7973 23.3964 23.1491 23.6718 23.5506 23.8566C23.9521 24.0414 24.3921 24.1305 24.835 24.1166L27.3111 23.9015C27.75 23.8397 28.168 23.6769 28.5312 23.4262C28.8944 23.1756 29.1927 22.8441 29.4019 22.4587L30.4556 20.246C30.6188 19.8398 30.6834 19.4016 30.6442 18.9663C30.6049 18.5311 30.4629 18.111 30.2296 17.7395L28.8219 15.687C28.548 15.344 28.1961 15.0694 27.7946 14.8855C27.393 14.7016 26.9533 14.6136 26.5108 14.6285L24.5793 14.7924C24.1368 14.8074 23.6971 14.7193 23.2955 14.5354C22.894 14.3515 22.5421 14.0769 22.2682 13.734L19.487 9.8182C19.2533 9.44677 19.1116 9.02632 19.0732 8.59086C19.0349 8.15534 19.1012 7.71712 19.2665 7.31155L20.0833 5.58033C20.2486 5.17476 20.3148 4.73654 20.2765 4.30102C20.2382 3.86556 20.0965 3.44511 19.8628 3.07368L18.4345 1.06538C18.1612 0.72137 17.8095 0.445772 17.4079 0.260908C17.0063 0.0760434 16.5662 -0.012816 16.1233 0.00149033L13.6417 0.216827C13.2026 0.278184 12.7844 0.440863 12.4211 0.691517C12.0578 0.942224 11.7597 1.27386 11.5509 1.65959L10.5247 3.87141C10.3615 4.27762 10.2969 4.71583 10.3361 5.15104C10.3754 5.58626 10.5174 6.00643 10.7507 6.37787L12.179 8.38617C12.4435 8.73064 12.7856 9.00962 13.1784 9.2012C13.5712 9.39274 14.0038 9.49154 14.442 9.4898Z" fill="#41C498"/>
<path d="M17.0611 30.9451C17.4995 30.8817 17.9168 30.7182 18.2797 30.4677C18.6427 30.2172 18.9414 29.8867 19.1519 29.5023L20.1781 27.2905C20.3409 26.8842 20.4052 26.446 20.366 26.0109C20.3268 25.5758 20.185 25.1556 19.9521 24.7841L18.5238 22.7757C18.2499 22.4324 17.8981 22.1573 17.4967 21.9725C17.0952 21.7877 16.6554 21.6984 16.2125 21.7119L14.2757 21.8814C13.833 21.8948 13.3931 21.8056 12.9916 21.6208C12.5902 21.436 12.2383 21.1609 11.9645 20.8175L9.18894 16.9069C8.95562 16.5355 8.81365 16.1154 8.77441 15.6802C8.73517 15.245 8.79975 14.8067 8.96293 14.4005L9.785 12.6636C9.94821 12.2584 10.0128 11.821 9.97362 11.3867C9.93436 10.9523 9.79247 10.5331 9.55919 10.1626L8.13568 8.13238C7.86121 7.78971 7.50932 7.51505 7.10799 7.33028C6.70671 7.14557 6.26715 7.05593 5.82441 7.06854L3.34286 7.28382C2.90496 7.34645 2.48809 7.50957 2.12589 7.76013C1.76369 8.01075 1.46623 8.34171 1.25754 8.72645L0.203815 10.9392C0.0384842 11.3438 -0.027728 11.7812 0.0105501 12.2157C0.04883 12.6504 0.190561 13.0699 0.424176 13.4404L1.85262 15.4541C2.12736 15.7965 2.47936 16.071 2.88058 16.2556C3.28185 16.4404 3.72124 16.5302 4.16384 16.5181L6.1007 16.3485C6.54357 16.3346 6.98355 16.4237 7.38505 16.6085C7.7866 16.7933 8.13835 17.0687 8.41198 17.4124L11.1929 21.3227C11.4267 21.6941 11.5684 22.1146 11.6067 22.5501C11.645 22.9856 11.5789 23.4238 11.4135 23.8293L10.5967 25.5606C10.4313 25.9661 10.3652 26.4044 10.4035 26.8399C10.4418 27.2753 10.5835 27.6958 10.8172 28.0672L12.2456 30.081C12.5198 30.4236 12.8718 30.698 13.2732 30.8818C13.6747 31.0657 14.1144 31.1539 14.5567 31.1394L17.0611 30.9451Z" fill="#41C498"/>
<path d="M41.2651 24.2295H36.8171V10.3294H41.2651C45.6138 10.3294 48.2548 13.1094 48.2548 17.2795C48.2548 21.4296 45.6138 24.2295 41.2651 24.2295ZM38.5447 11.918V22.6409H41.2651C44.6408 22.6409 46.4876 20.5162 46.4876 17.2795C46.4876 14.0229 44.6408 11.918 41.2651 11.918H38.5447ZM51.0259 12.3946C50.4301 12.3946 49.9734 11.9577 49.9734 11.3422C49.9734 10.7266 50.4301 10.2897 51.0259 10.2897C51.6216 10.2897 52.0783 10.7266 52.0783 11.3422C52.0783 11.9577 51.6216 12.3946 51.0259 12.3946ZM50.1919 24.2295V14.1023H51.8202V24.2295H50.1919ZM63.0064 22.7402H63.5227V24.2295H62.6292C61.2789 24.2295 60.8221 23.6536 60.8023 22.6608C60.1669 23.5742 59.1541 24.3486 57.4067 24.3486C55.1827 24.3486 53.6735 23.2366 53.6735 21.3899C53.6735 19.3645 55.0834 18.2326 57.7443 18.2326H60.7229V17.5376C60.7229 16.227 59.7896 15.4327 58.201 15.4327C56.7713 15.4327 55.8181 16.1079 55.6196 17.1405H53.9913C54.2295 15.1547 55.838 13.9832 58.2804 13.9832C60.8619 13.9832 62.3512 15.2739 62.3512 17.6369V22.0651C62.3512 22.6012 62.5497 22.7402 63.0064 22.7402ZM60.7229 20.0992V19.6028H57.5854C56.1358 19.6028 55.3217 20.1389 55.3217 21.2906C55.3217 22.2835 56.1756 22.9586 57.5258 22.9586C59.5513 22.9586 60.7229 21.7871 60.7229 20.0992ZM72.7571 15.8497L72.9755 14.1023H74.3854V23.7331C74.3854 26.6521 72.8365 28.3201 69.3615 28.3201C66.7801 28.3201 64.9731 27.1088 64.7149 24.8848H66.3829C66.6609 26.1556 67.7928 26.8705 69.4807 26.8705C71.6054 26.8705 72.7571 25.8776 72.7571 23.6735V22.4821C72.082 23.6338 70.9898 24.3486 69.2821 24.3486C66.4822 24.3486 64.4171 22.4622 64.4171 19.1659C64.4171 16.0682 66.4822 13.9832 69.2821 13.9832C70.9898 13.9832 72.1217 14.7179 72.7571 15.8497ZM69.441 22.8991C71.4267 22.8991 72.777 21.3701 72.777 19.2056C72.777 16.9816 71.4267 15.4327 69.441 15.4327C67.4354 15.4327 66.0851 16.9617 66.0851 19.1659C66.0851 21.3701 67.4354 22.8991 69.441 22.8991ZM81.5678 13.9832C83.8514 13.9832 85.6584 15.2342 85.6584 18.59V24.2295H84.0301V18.6893C84.0301 16.5845 83.0571 15.4725 81.2898 15.4725C79.3835 15.4725 78.2318 16.8823 78.2318 19.1659V24.2295H76.6035V14.1023H78.0134L78.2318 15.4725C78.8275 14.698 79.8601 13.9832 81.5678 13.9832ZM92.2845 24.3486C89.3258 24.3486 87.2606 22.2438 87.2606 19.1659C87.2606 16.088 89.3258 13.9832 92.2845 13.9832C95.2432 13.9832 97.3084 16.088 97.3084 19.1659C97.3084 22.2438 95.2432 24.3486 92.2845 24.3486ZM92.2845 22.8991C94.2901 22.8991 95.6404 21.3303 95.6404 19.1659C95.6404 17.0015 94.2901 15.4327 92.2845 15.4327C90.2789 15.4327 88.9286 17.0015 88.9286 19.1659C88.9286 21.3303 90.2789 22.8991 92.2845 22.8991ZM100.069 24.2295H98.282L103.584 10.3294H105.629L110.911 24.2295H109.064L107.595 20.4765H101.539L100.069 24.2295ZM104.557 12.2159L102.055 18.9078H107.079L104.557 12.2159ZM112.484 24.2295V10.3294H114.212V24.2295H112.484Z" fill="#052F45"/>
</svg>
