<svg width="46" height="49" viewBox="0 0 46 49" fill="none" xmlns="http://www.w3.org/2000/svg">
<path d="M32.7581 9.14099L31.2189 12.5058C30.974 13.1239 30.8772 13.7905 30.936 14.4526C30.9949 15.1147 31.2078 15.7538 31.5579 16.3189L33.7003 19.3742C34.1093 19.8985 34.6367 20.3185 35.2393 20.5998C35.8419 20.8811 36.5026 21.0158 37.1672 20.9926L40.8896 20.6651C41.5464 20.5698 42.1717 20.3216 42.715 19.9405C43.2583 19.5592 43.7045 19.0557 44.0175 18.4704L45.5981 15.1042C45.8461 14.4872 45.9454 13.8205 45.8879 13.158C45.8305 12.4956 45.6179 11.8559 45.2673 11.2908L43.125 8.23568C42.715 7.71234 42.1874 7.29299 41.585 7.01184C40.9827 6.7306 40.3224 6.59534 39.658 6.61711L35.9356 6.9447C35.2696 7.03209 34.634 7.27688 34.0814 7.65879C33.5288 8.04071 33.0752 8.54884 32.7581 9.14099Z" fill="#41C498"/>
<path d="M28.6198 29.2611L30.2003 25.8948C30.4452 25.2783 30.542 24.613 30.4832 23.9522C30.4244 23.2914 30.2115 22.6537 29.8616 22.09L27.7181 19.0018C27.3064 18.4805 26.7785 18.0625 26.1765 17.7815C25.5746 17.5005 24.9152 17.3641 24.2512 17.3833L20.5288 17.7109C19.8719 17.8061 19.2466 18.0543 18.7033 18.4355C18.16 18.8167 17.7138 19.3202 17.4009 19.9054L15.8616 23.2703C15.6136 23.8858 15.5142 24.5512 15.5717 25.2124C15.6291 25.8735 15.8417 26.5118 16.1921 27.0753L18.3348 30.1388C18.7482 30.6603 19.2776 31.0781 19.8809 31.359C20.4842 31.6399 21.1448 31.7762 21.8099 31.757L25.5241 31.4297C26.1723 31.3313 26.789 31.0844 27.3261 30.7082C27.8631 30.332 28.3058 29.8367 28.6198 29.2611Z" fill="#41C498"/>
<path d="M13.2456 40.0095L14.7848 36.6446C15.0329 36.0276 15.1322 35.361 15.0747 34.6985C15.0173 34.036 14.8047 33.3963 14.4541 32.8313L12.3117 29.7762C11.9009 29.2538 11.3731 28.8352 10.771 28.5541C10.1688 28.2729 9.509 28.1372 8.84476 28.1576L5.12236 28.4853C4.47641 28.5869 3.86256 28.8361 3.32865 29.2136C2.79465 29.591 2.35491 30.0865 2.0435 30.6616L0.50426 34.0264C0.259496 34.6444 0.162624 35.311 0.221481 35.9731C0.280338 36.6352 0.493293 37.2743 0.843271 37.8395L2.98594 40.9029C3.39675 41.4247 3.92467 41.8424 4.52695 42.1221C5.12924 42.4019 5.7889 42.5358 6.45257 42.5132L10.1097 42.2126C10.769 42.1183 11.3967 41.8697 11.9416 41.4868C12.4865 41.104 12.9334 40.5977 13.2456 40.0095Z" fill="#41C498"/>
<path d="M21.663 15.3204L24.5599 15.0628C25.2239 15.0436 25.8833 15.18 26.4852 15.4611C27.0872 15.7421 27.6151 16.1599 28.0268 16.6813L32.1987 22.6383C32.5485 23.2019 32.7614 23.8397 32.8202 24.5005C32.879 25.1612 32.7821 25.8266 32.5374 26.4431L31.3043 29.0854C31.0562 29.7024 30.9569 30.369 31.0143 31.0315C31.0718 31.694 31.2845 32.3337 31.635 32.8987L33.7857 35.9536C34.196 36.4765 34.7236 36.8954 35.326 37.1766C35.9282 37.4577 36.5882 37.5932 37.2526 37.5721L40.9667 37.2448C41.625 37.1508 42.252 36.9031 42.7968 36.5218C43.3416 36.1405 43.789 35.6363 44.1029 35.05L45.6835 31.6837C45.9282 31.0658 46.0251 30.3991 45.9662 29.7369C45.9074 29.0748 45.6944 28.4357 45.3444 27.8706L43.2328 24.7481C42.822 24.2263 42.2941 23.8086 41.6918 23.5289C41.0895 23.2491 40.4299 23.1152 39.7662 23.1379L36.869 23.3873C36.2052 23.41 35.5456 23.276 34.9433 22.9962C34.341 22.7165 33.8131 22.2988 33.4024 21.777L29.2305 15.82C28.88 15.255 28.6673 14.6153 28.6099 13.9529C28.5524 13.2903 28.6518 12.6237 28.8998 12.0067L30.1249 9.37298C30.3729 8.75599 30.4722 8.08933 30.4148 7.42678C30.3573 6.76432 30.1447 6.12469 29.7942 5.55963L27.6518 2.50443C27.2418 1.98108 26.7143 1.56182 26.1119 1.28058C25.5094 0.999351 24.8493 0.86417 24.1849 0.885934L20.4625 1.21352C19.8039 1.30687 19.1767 1.55435 18.6317 1.93567C18.0868 2.31707 17.6396 2.82158 17.3263 3.40838L15.7871 6.77321C15.5422 7.39117 15.4454 8.05782 15.5042 8.71991C15.5631 9.382 15.776 10.0212 16.1261 10.5863L18.2685 13.6415C18.6652 14.1655 19.1785 14.5899 19.7676 14.8814C20.3568 15.1728 21.0056 15.3231 21.663 15.3204Z" fill="#41C498"/>
<path d="M25.5917 47.9602C26.2493 47.8637 26.8751 47.615 27.4196 47.234C27.9641 46.8529 28.4121 46.35 28.7279 45.7654L30.2671 42.4005C30.5113 41.7824 30.6078 41.1158 30.549 40.4539C30.4901 39.7919 30.2775 39.1527 29.9281 38.5875L27.7857 35.5322C27.3749 35.0099 26.8472 34.5914 26.245 34.3102C25.6429 34.0291 24.983 33.8933 24.3188 33.9138L21.4136 34.1717C20.7494 34.1921 20.0896 34.0563 19.4875 33.7752C18.8853 33.4941 18.3575 33.0755 17.9467 32.5531L13.7834 26.6041C13.4334 26.039 13.2205 25.3999 13.1616 24.7378C13.1028 24.0757 13.1996 23.409 13.4444 22.791L14.6775 20.1488C14.9223 19.5322 15.0192 18.8669 14.9604 18.2061C14.9015 17.5453 14.6887 16.9076 14.3388 16.344L12.2035 13.2554C11.7918 12.7341 11.264 12.3163 10.662 12.0352C10.0601 11.7542 9.40073 11.6178 8.73661 11.637L5.0143 11.9645C4.35744 12.0598 3.73213 12.3079 3.18883 12.6891C2.64553 13.0704 2.19935 13.5738 1.88631 14.1592L0.305722 17.5254C0.0577264 18.1409 -0.0415919 18.8062 0.0158251 19.4674C0.073245 20.1286 0.285842 20.7668 0.636264 21.3305L2.77893 24.3939C3.19104 24.9147 3.71903 25.3323 4.32086 25.6133C4.92278 25.8943 5.58186 26.0309 6.24576 26.0125L9.15106 25.7546C9.81536 25.7334 10.4753 25.8689 11.0776 26.15C11.6799 26.4312 12.2075 26.8501 12.618 27.373L16.7894 33.3217C17.14 33.8868 17.3526 34.5265 17.4101 35.1889C17.4676 35.8514 17.3683 36.5181 17.1203 37.1351L15.895 39.7688C15.647 40.3858 15.5477 41.0525 15.6052 41.715C15.6627 42.3774 15.8752 43.0171 16.2258 43.5821L18.3685 46.6457C18.7797 47.1669 19.3077 47.5842 19.9098 47.8639C20.5121 48.1437 21.1716 48.2779 21.8351 48.2558L25.5917 47.9602Z" fill="#41C498"/>
</svg>
