<svg width="20" height="21" viewBox="0 0 20 21" fill="none" xmlns="http://www.w3.org/2000/svg">
<path opacity="0.4" d="M10.1341 9.40925C10.0508 9.40091 9.95078 9.40091 9.85911 9.40925C7.87578 9.34258 6.30078 7.71758 6.30078 5.71758C6.30078 3.67591 7.95078 2.01758 10.0008 2.01758C12.0424 2.01758 13.7008 3.67591 13.7008 5.71758C13.6924 7.71758 12.1174 9.34258 10.1341 9.40925Z" stroke="#282828" stroke-width="1.5" stroke-linecap="round" stroke-linejoin="round"/>
<path d="M5.96758 12.4836C3.95091 13.8336 3.95091 16.0336 5.96758 17.3753C8.25924 18.9086 12.0176 18.9086 14.3092 17.3753C16.3259 16.0253 16.3259 13.8253 14.3092 12.4836C12.0259 10.9586 8.26758 10.9586 5.96758 12.4836Z" stroke="#282828" stroke-width="1.5" stroke-linecap="round" stroke-linejoin="round"/>
</svg>
