<svg width="20" height="21" viewBox="0 0 20 21" fill="none" xmlns="http://www.w3.org/2000/svg">
<path d="M14.168 3.13721H5.83464C3.33464 3.13721 1.66797 4.38721 1.66797 7.30387V13.1372C1.66797 16.0539 3.33464 17.3039 5.83464 17.3039H14.168C16.668 17.3039 18.3346 16.0539 18.3346 13.1372V7.30387C18.3346 4.38721 16.668 3.13721 14.168 3.13721ZM14.5596 8.21221L11.9513 10.2955C11.4013 10.7372 10.7013 10.9539 10.0013 10.9539C9.3013 10.9539 8.59297 10.7372 8.0513 10.2955L5.44297 8.21221C5.1763 7.99554 5.13464 7.59554 5.34297 7.32887C5.55964 7.06221 5.9513 7.01221 6.21797 7.22887L8.8263 9.31221C9.45964 9.82054 10.5346 9.82054 11.168 9.31221L13.7763 7.22887C14.043 7.01221 14.443 7.05387 14.6513 7.32887C14.868 7.59554 14.8263 7.99554 14.5596 8.21221Z" fill="#BDBDBD"/>
</svg>
