<svg width="20" height="20" viewBox="0 0 20 20" fill="none" xmlns="http://www.w3.org/2000/svg">
<path d="M17.5 4.98307C14.725 4.70807 11.9333 4.56641 9.15 4.56641C7.5 4.56641 5.85 4.64974 4.2 4.81641L2.5 4.98307" stroke="#282828" stroke-width="1.5" stroke-linecap="round" stroke-linejoin="round"/>
<path opacity="0.34" d="M7.08334 4.14199L7.26667 3.05033C7.4 2.25866 7.5 1.66699 8.90834 1.66699H11.0917C12.5 1.66699 12.6083 2.29199 12.7333 3.05866L12.9167 4.14199" stroke="#282828" stroke-width="1.5" stroke-linecap="round" stroke-linejoin="round"/>
<path d="M15.7083 7.61621L15.1667 16.0079C15.075 17.3162 15 18.3329 12.675 18.3329H7.325C5 18.3329 4.925 17.3162 4.83333 16.0079L4.29166 7.61621" stroke="#282828" stroke-width="1.5" stroke-linecap="round" stroke-linejoin="round"/>
<path opacity="0.34" d="M8.60834 13.75H11.3833" stroke="#282828" stroke-width="1.5" stroke-linecap="round" stroke-linejoin="round"/>
<path opacity="0.34" d="M7.91666 10.417H12.0833" stroke="#282828" stroke-width="1.5" stroke-linecap="round" stroke-linejoin="round"/>
</svg>
